<?xml version="1.0" encoding="UTF-8"?>
<svg version="1.1" viewBox="0 0 2048 1041" width="1280" height="1280" xmlns="http://www.w3.org/2000/svg">
<path transform="translate(272,477)" d="m0 0h55l24 2 29 4 17 4 4 4 3 32 4 63v7l-10-2-19-5-26-4-11-1h-17l-8 3-5 5-3 9 1 11 4 13 1 1h51l22-1 13-1 1 1 5 41 5 53v5l-1 1h-70v124l1 35 4 48 1 9v9l-1 1-173-1v-14l4-33 1-11 1-23v-148l-37 2h-9v-72l4-3 28-11 15-8 4-3-4-16-5-30v-20l4-18 5-12 7-12 9-10 12-9 19-10 20-6z" fill="#FEFEFE"/>
<path transform="translate(791,617)" d="m0 0h20l26 3 24 5 16 6 17 9 13 10 10 9 9 9 9 14 6 12 6 21 2 12v26l-4 22-4 12-2 4-2 1-161 1 4 17 7 14 9 10 9 6 9 4 16 4 20 2 22-1 35-6 20-5h2l-1 16-9 76-2 7-3 3-18 5-26 5-24 3-13 1h-35l-26-3-24-5-24-8-21-10-11-7-12-9-10-9-10-10-10-13-10-17-8-19-6-24-3-22v-15l2-19 6-29 5-15 10-21 12-17 11-13 11-11 19-14 25-13 21-7 20-4zm8 93-10 6-6 8-3 7-4 27-1 10v16h9l15-5 15-8 8-9 4-13v-18l-3-9-6-8-8-4z" fill="#FEFEFE"/>
<path transform="translate(591,503)" d="m0 0h4v17l-2 51v280l2 35 5 52v10l-4 1-171-1-1-4 4-26 3-43 1-24v-233l-1-24-4-36-5-30 3-2 40-6 81-11z" fill="#FEFEFE"/>
<path transform="translate(1389,617)" d="m0 0h32l33 3 30 5 8 3 2 4 6 61 3 35v5l-9-2-21-7-25-5-17-2h-16l-10 2-1 5 9 6 18 8 27 11 22 12 14 11 8 8 9 12 8 16 5 18 3 21-1 14-7 24-7 14-10 13-10 10-15 11-16 8-14 5-21 5-22 3h-43l-33-3-40-7-14-4-6-3-1-6-3-53-1-22v-19l4-1 22 8 25 6 31 4h28l12-3-3-6-8-6-16-8-34-16-15-9-16-12-8-8-8-11-7-14-7-22-1-8v-21l4-18 7-17 9-13 10-11 13-10 21-11 21-7 22-4z" fill="#FEFEFE"/>
<path transform="translate(1097,617)" d="m0 0h30l35 3 25 4 12 3 3 5 7 76 2 25-9-2-21-7-25-5-17-2h-17l-9 2-1 5 9 6 13 6 29 12 23 12 12 9 10 9 9 11 8 14 5 13 4 19 1 9v10l-3 15-6 18-8 15-8 10-10 10-13 10-15 8-17 6-16 4-28 4h-40l-34-3-36-6-16-4-8-4-2-5-3-62v-33l7 1 18 6 24 6 31 4 21 1 16-3 3-2-2-5-8-6-16-8-30-14-16-9-14-10-10-9-8-9-9-16-7-23-1-5v-31l4-16 8-17 10-13 7-8 12-9 10-6 17-8 16-5 30-5z" fill="#FEFEFE"/>
<path transform="translate(1712,619)" d="m0 0h10v13l-2 41v183l3 50 3 28 2 13-1 1-176 1-1-3 3-17 5-66v-142l-3-32-4-32-1-6v-11l132-17z" fill="#FEFEFE"/>
<path transform="translate(875,68)" d="m0 0 5 1 21 14 14 10 22 18 12 11 24 24 9 11 13 16 14 20 13 21 10 18 13 27 10 26 8 27 6 25 6 37 2 21v49l-4 36-7 38-3 10-7-4-11-11-8-7-16-17-11-12-9-11-13-16-15-22-13-19-11-19-13-24-8-16-9-20-13-33-9-28-10-38-7-37-5-34-1-13v-76z" fill="#FEFEFE"/>
<path transform="translate(1223,164)" d="m0 0h2l2 14 2 31v48l-2 25-6 36-5 23-9 30-9 25-13 30-11 21-15 25-10 14-16 21-9 11-10 11-3-1-6-14-5-21-6-32-2-19-1-15v-26l6-42 6-25 9-27 11-24 12-23 8-12 14-20 13-16 7-7 7-8 10-10 8-7 7-7 10-7z" fill="#FEFEFE"/>
<path transform="translate(1828,799)" d="m0 0h17l18 3 13 5 12 7 12 11 9 13 6 13 4 14 1 6v17l-4 18-8 16-9 13-7 7-13 8-12 5-12 3-7 1h-27l-15-3-15-6-13-9-11-11-9-15-5-14-2-10-1-14 2-14 5-16 6-11 8-10 9-9 14-9 13-5 13-3z" fill="#FEFEFE"/>
<path transform="translate(1635,459)" d="m0 0 20 1 20 4 16 7 13 8 12 12 8 14 4 12 1 15-2 13-5 13-8 12-10 10-13 8-15 6-20 4-10 1h-20l-15-2-14-4-17-8-9-7-11-11-8-14-4-13v-20l3-12 7-14 12-13 13-9 13-6 15-4 12-2z" fill="#FEFEFE"/>
<path transform="translate(843,450)" d="m0 0h30l31 4 22 6 16 6 16 8 12 7 16 11 11 9 19 19 11 14 8 11 6 10 1 5-5 1-35-3-25-4-23-6-23-8-29-14-16-9-17-12-14-11-15-13-17-17-5-8 1-4 5-1z" fill="#FEFEFE"/>
</svg>
