<?xml version="1.0" encoding="UTF-8"?>
<svg version="1.1" viewBox="0 0 2048 811" width="1280" height="1280" xmlns="http://www.w3.org/2000/svg">
<path transform="translate(302,110)" d="m0 0h48l33 3 33 5 21 5 3 2 2 9 7 75v32l-1 2-11-3-26-6-20-3-11-1h-25l-10 3-4 6-3 11v11l4 16h49l40-2h10l3 13 5 37 5 58v5l-3 2h-19l-42-1h-18l1 144 2 44 3 37 3 30-1 1-9 1h-187l-4-1v-7l5-32 2-21 2-49v-150h-50l-2-2v-78l4-4 29-12 17-9 7-5-1-8-5-18-3-20v-32l4-18 6-15 9-13 13-13 10-7 15-8 24-8 20-4z" fill="#FEFDFD"/>
<path transform="translate(882,271)" d="m0 0h28l30 3 21 5 19 7 16 8 11 7 13 10 14 14 11 15 8 15 6 17 4 16 1 6v25l-3 20-5 18-4 9-4 3-130 1-51 2 4 15 5 12 8 11 10 9 14 7 15 5 15 2h30l21-2 35-7 11-4 5 1-2 22-8 71-3 18-4 4-24 7-28 5-32 4-14 1h-27l-29-3-24-4-21-6-24-9-23-12-17-12-14-12-7-7-9-11-9-12-10-18-10-25-6-25-3-19v-23l4-27 4-20 7-21 8-16 6-11 8-12 13-16 17-17 18-13 21-12 20-8 22-6 18-3zm9 107-8 4-7 8-5 12-2 10-1 10v40l11-5 18-6 12-7 8-9 4-11 1-7v-14l-3-13-6-8-4-3-4-1z" fill="#FEFDFD"/>
<path transform="translate(658,140)" d="m0 0 4 1v21l-2 44v335l3 51 3 33 1 9v10l-1 1-14 1h-183l-1-1v-7l3-20 4-48 1-17v-292l-3-31-6-49-1-6v-8l45-7 110-15z" fill="#FEFDFD"/>
<path transform="translate(1553,271)" d="m0 0h49l32 3 31 6 10 3 2 3 2 18 8 92-1 5-6-1-16-6-21-5-31-4-14-1h-17l-5 2v5l9 7 23 10 21 9 21 10 14 9 9 7 10 9 9 10 8 13 6 13 4 14 3 21v13l-2 18-4 15-9 19-8 11-9 10-4 5-13 10-17 10-20 8-17 5-21 4-21 2h-36l-34-3-34-5-40-9-3-3-2-6-2-41-1-43 2-18 1-2 7 1 30 7 30 5 27 3h32l4-2 1-7-5-6-23-12-28-13-21-11-12-8-10-8-14-14-10-15-8-19-3-11-2-18v-12l2-21 4-13 8-16 9-13 13-13 16-11 16-9 18-7 21-5 21-3z" fill="#FEFDFD"/>
<path transform="translate(1244,271)" d="m0 0h18l35 2 20 3 23 6 5 3 2 12 5 60 2 35v7l-5-1-18-5-17-4-27-3-18-1h-21l-3 1 1 5 9 7 22 10 21 9 19 9 16 10 10 8 10 9 11 13 8 14 6 15 3 18v27l-4 24-4 12-7 14-9 12-11 12-13 10-13 8-20 9-21 6-20 4-21 2h-33l-37-3-34-5-40-9-4-3-1-3-3-48-2-54v-8l1-1 9 1 28 10 25 5 22 3 21 2h20l8-3 1-7-5-6-23-12-26-12-21-11-14-9-10-8-8-7-11-14-8-14-6-14-4-19v-28l4-18 5-13 8-15 8-10 11-12 14-11 18-10 18-7 24-6 26-2zm99 111v8l2 1-1-9z" fill="#FEFDFD"/>
<path transform="translate(1928,272)" d="m0 0h6v21l-2 70v133l1 51 2 37 3 35 3 25-1 1-7 1h-177l-15-1v-9l4-31 3-52 1-72v-65l-2-44-6-64v-9l3-2 38-6 68-9 72-9z" fill="#FEFDFD"/>
<path transform="translate(1826,92)" d="m0 0h30l16 2 16 5 17 8 12 9 6 5 9 12 6 12 4 16v18l-4 17-5 10-10 13-8 8-10 7-14 7-17 5-18 3h-36l-17-3-16-6-14-7-10-8-11-11-8-13-5-13-1-5v-23l4-15 7-14 12-14 11-8 12-7 17-6 15-3z" fill="#FEFDFD"/>
<path transform="translate(1039,333)" d="m0 0 4 4 10 18 6 17 4 16 1 6v25l-3 20-5 18-4 9-4 3-130 1-51 2 4 15 5 12 8 11 10 9 9 5-1 2-9-3-7-6-9-11-8-13-3-7-1-5-1-34v-12l1-19 7-24 5-10 8-6 7-2h10l8 2 8 5 5 8 6 12v11l-5 17-6 12-8 7-14 8v5l6 2 12 1 129-1 6-2 3-8 4-21 1-9v-28l-4-23-6-18-8-18zm-148 45-8 4-7 8-5 12-2 10-1 10v40l11-5 18-6 12-7 8-9 4-11 1-7v-14l-3-13-6-8-4-3-4-1z" fill="#FEF2E9"/>
<path transform="translate(477,165)" d="m0 0 2 1-4 5-1 2 1 29 4 24 2 38 1 34 1 97-1 108-2 62-2 23-3 18-1 2-1 9h-1v-10l4-54v-292l-3-31-6-49-1-6v-8z" fill="#FEF2E9"/>
<path transform="translate(1742,298)" d="m0 0 3 1 4 48 5 57v94l-5 127v8l1 7 3 1 45 1h59l35 1 34 2v1h-170l-15-1v-9l4-31 3-52 1-72v-65l-2-44-6-64v-9z" fill="#FEF2E9"/>
<path transform="translate(1419,523)" d="m0 0 7 1 3 2-6 4-3 10-1 18v22l1 1 1 16v26l3 9 4 2 23 3 16 4 40 3 16 1h45l41-3 20-5 24-10 5-2v3l-16 8-15 6-17 5-21 4-21 2h-36l-34-3-34-5-40-9-3-3-2-6-2-41-1-43 2-18z" fill="#FEF2E9"/>
<path transform="translate(658,236)" d="m0 0h1l1 305 3 51 3 33 1 9v10l-5 1-5-79-1-27v-120l1-12-1-37v-52z" fill="#FEF2E9"/>
<path transform="translate(1553,271)" d="m0 0h49l32 3 4 2-4 1h-106l-23 6-9 2-15 7-14 8-10 8-11 8-6 5-7 10-9 19-5 15-2 9v39h-1l-2-18v-12l2-21 4-13 8-16 9-13 13-13 16-11 16-9 18-7 21-5 21-3z" fill="#FEF2E9"/>
<path transform="translate(1309,633)" d="m0 0 5 1-2 2-21 8-26 6-14 2-13 1h-33l-37-3-34-5 3-2h16l53 2h15l46-2 16-2 17-5z" fill="#FEF2E9"/>
<path transform="translate(825,638)" d="m0 0 11 1 12 3 39 4 32 1 37-2 29-3 9 1v1l-30 5-25 3-14 1h-27l-29-3-24-4-21-6z" fill="#FEF2E9"/>
<path transform="translate(1932,272)" d="m0 0h2v21l-2 70v133l1 51 2 37 1 17-2-2-2-11-2-37-1-91v-142l2-40z" fill="#FEF2E9"/>
<path transform="translate(1101,329)" d="m0 0 1 2-7 15-7 30-1 4v25l2 10 5 12 9 17 7 9 6 9 13 13 11 8 5 3 1 3-5-2-11-7-10-8-8-7-11-14-8-14-6-14-4-19v-28l4-18 5-13 8-15z" fill="#FEF2E9"/>
<path transform="translate(1539,518)" d="m0 0 6 2 9 6 3 5-2 6-8 5-6 2h-39l-25-2-15-5-17-4-8-3v-2l-3-1 8 1 31 6 29 4 11 1h32l4-2 1-7-5-6-7-4z" fill="#FEF2E9"/>
<path transform="translate(443,289)" d="m0 0h1l5 36 5 58v5l-3 2h-19l-37-1 1-2 13-1h39v-18l-6-68z" fill="#FEF2E9"/>
<path transform="translate(725,354)" d="m0 0 1 2-14 28-7 22-3 13-2 18-4 34v10l3 23v7l-2-4-5-29v-23l4-27 4-20 7-21 8-16 6-11z" fill="#FEF2E9"/>
<path transform="translate(1244,271)" d="m0 0h18l35 2 20 3 16 4v1h-12l-16-3-32-3-18-1h-35l-26 2-22 8-14 4-23 12-6 3v-3l11-7 16-8 13-5 24-6 26-2z" fill="#FEF2E9"/>
<path transform="translate(1256,378)" d="m0 0 21 1 28 4 17 4 12 5-3 1-17-4-27-3-18-1h-21l-3 1 1 5 9 7 17 8v1l-8-1-17-7-4-5-1-5 1-6 4-3z" fill="#FEF2E9"/>
<path transform="translate(1769,229)" d="m0 0 5 1 16 8 12 4 34 2h12l24-2 16-4 15-7h3l-1 3-14 7-17 5-18 3h-36l-17-3-16-6-14-7z" fill="#FEF2E9"/>
<path transform="translate(1035,520)" d="m0 0 5 1-1 9-5-3-15 1-17 6-15 2-13 1h-36l-14-2-12-4-4-4 5 1 15 4 10 1h30l21-2 35-7z" fill="#FEF2E9"/>
<path transform="translate(1682,452)" d="m0 0 6 5 10 14 8 17 4 14 3 21v13l-2 18-4 15-5 11-2-1 3-11 4-17 1-8v-33l-4-15-9-21-10-15-3-4z" fill="#FEF2E9"/>
<path transform="translate(1669,282)" d="m0 0 6 1 2 3 2 18 6 69v11h-1l-5-28-4-30-1-11-1-23-2-7z" fill="#FEF2E9"/>
<path transform="translate(443,156)" d="m0 0h1l5 53v32l-1 2-11-3-2-2 3-2 7-2 2-2v-7l-5-26-1-11 1-28z" fill="#FEF2E9"/>
<path transform="translate(882,271)" d="m0 0h28l30 3 5 1v1h-17l-47-1-32 2-9 3-11 1-1-2 22-5z" fill="#FEF2E9"/>
<path transform="translate(1582,379)" d="m0 0h19l31 4 20 4 10 3 2 1v2l-7-1-19-4-26-3-14-1h-21v-3z" fill="#FEF2E9"/>
<path transform="translate(417,276)" d="m0 0h14l-3 2-14 4h-39l-17-1-10-2v-1l43-1z" fill="#FEF2E9"/>
<path transform="translate(1085,519)" d="m0 0 9 1 28 10 8 2v1h-7l-13-3-5-2h-12l-4 6-1 3-1 44h-1l-2-53v-8z" fill="#FEF2E9"/>
<path transform="translate(1346,300)" d="m0 0h1l4 44 3 48v7l-5-1-6-2 6-7 1-6-4-58-1-18z" fill="#FEF2E9"/>
<path transform="translate(1826,92)" d="m0 0h30l9 1v1l-7 1h-36l-12 1-20 7-14 8-9 6-10 8-6 5 2-4 8-9 11-8 12-7 17-6 15-3z" fill="#FEF2E9"/>
<path transform="translate(818,282)" d="m0 0 4 1-6 4-16 7-21 12-14 9-11 9-5 2 6-7 8-7 17-12 18-10z" fill="#FEF2E9"/>
<path transform="translate(1141,535)" d="m0 0 12 1 37 4h20l7-1-1 3-7 2-7-1h-34l-17-3-10-4z" fill="#FEF2E9"/>
<path transform="translate(1367,472)" d="m0 0 3 4 7 16 3 13 1 8v27h-1l-3-27-4-16-6-19-1-5z" fill="#FEF2E9"/>
<path transform="translate(1575,391)" d="m0 0 9 6 14 7 27 11-3 1-16-4-15-5-14-8-3-7z" fill="#FEF2E9"/>
<path transform="translate(1418,418)" d="m0 0 3 4 5 12 5 6 5 10 8 10 5 6 8 7 4 4-1 2-9-7-14-14-10-15-8-19z" fill="#FEF2E9"/>
<path transform="translate(189,387)" d="m0 0 3 1 1 19v36l-2 14h-1z" fill="#FEF2E9"/>
<path transform="translate(1914,274)" d="m0 0v3l-6 2-31 3-25 3-1-1h-6v-1l37-5z" fill="#FEF2E9"/>
<path transform="translate(1934,138)" d="m0 0 3 4 4 13 1 6v18l-3 13-2-1v-36l-3-13z" fill="#FEF2E9"/>
<path transform="translate(137,307)" d="m0 0h1l1 16 1 62 3 1-5-1-1-1z" fill="#FEF2E9"/>
<path transform="translate(1379,541)" d="m0 0h1l-1 13-4 17-7 15-2 2 1-8 3-6 4-18 2-8z" fill="#FEF2E9"/>
<path transform="translate(1834,284)" d="m0 0h7l-3 2-7 2-25 3-13 1h-8v-1z" fill="#FEF2E9"/>
<path transform="translate(1036,543)" d="m0 0h1v9l-5 46h-1v-19l3-25z" fill="#FEF2E9"/>
<path transform="translate(760,606)" d="m0 0 6 2 28 17 4 4-6-2-18-10-14-10z" fill="#FEF2E9"/>
<path transform="translate(1087,586)" d="m0 0h1l2 12 1 14v13l-1 5h-1l-2-30z" fill="#FEF2E9"/>
<path transform="translate(1685,385)" d="m0 0h1l1 15-5 1-4-3 1-4 3-3 1-3h2z" fill="#FEF2E9"/>
<path transform="translate(1104,636)" d="m0 0 10 1 17 4 3 1v2l-10-1-22-5z" fill="#FEF2E9"/>
<path transform="translate(186,598)" d="m0 0h1v18l-2 14-3 2 1-11z" fill="#FEF2E9"/>
<path transform="translate(584,150)" d="m0 0h8v1l-13 3-23 1v-1z" fill="#FEF2E9"/>
<path transform="translate(635,143)" d="m0 0 4 1-6 3-26 1v-1z" fill="#FEF2E9"/>
<path transform="translate(1748,133)" d="m0 0 1 3-6 17-3 6-1-4 5-15z" fill="#FEF2E9"/>
<path transform="translate(1211,521)" d="m0 0 6 1 4 6 1 8-4 4v-3l1-7-5-6z" fill="#FEF2E9"/>
<path transform="translate(393,230)" d="m0 0h14l10 2-1 3-23-4z" fill="#FEF2E9"/>
<path transform="translate(470,627)" d="m0 0h1l1 19-4-1v-7z" fill="#FEF2E9"/>
<path transform="translate(1161,497)" d="m0 0 9 2 8 4v2l-5-1-12-6z" fill="#FEF2E9"/>
<path transform="translate(1344,446)" d="m0 0 4 2 8 8 1 3h-2v-2h-2v-2l-4-2-2-4h-2z" fill="#FEF2E9"/>
<path transform="translate(1768,293)" d="m0 0h6l-4 2-10 2-4-2z" fill="#FEF2E9"/>
<path transform="translate(1646,277)" d="m0 0 10 1 4 2-4 1-9-2z" fill="#FEF2E9"/>
</svg>
